HIERARCHY
ROOT hip
{
	OFFSET 0.000000 0.000000 0.000000 
	CHANNELS 6 Xposition Yposition Zposition Xrotation Zrotation Yrotation
	JOINT abdomen
	{
		OFFSET 0.000000 3.402643 0.000000 
		CHANNELS 3 Xrotation Zrotation Yrotation
		JOINT chest
		{
			OFFSET 0.000000 8.438565 -0.680529 
			CHANNELS 3 Xrotation Zrotation Yrotation
			JOINT neck
			{
				OFFSET 0.000000 10.207942 -0.272212 
				CHANNELS 3 Xrotation Zrotation Yrotation
				JOINT head
				{
					OFFSET 0.000000 3.130431 0.000000 
					CHANNELS 3 Xrotation Zrotation Yrotation
					End Site
					{
						OFFSET 0.000000 3.130435 0.000000 
					}
				}
			}
			JOINT lCollar
			{
				OFFSET 3.470700 6.669187 -0.816635 
				CHANNELS 3 Yrotation Zrotation Xrotation
				JOINT lShldr
				{
					OFFSET 3.198488 0.000000 0.000000 
					CHANNELS 3 Zrotation Yrotation Xrotation
					JOINT lForeArm
					{
						OFFSET 10.139888 0.000000 0.000000 
						CHANNELS 3 Yrotation Zrotation Xrotation
						JOINT lHand
						{
							OFFSET 8.370511 0.000000 0.000000 
							CHANNELS 3 Zrotation Yrotation Xrotation
							End Site
							{
								OFFSET 4.083176 0.000000 0.000000 
							}
						}
					}
				}
			}
			JOINT rCollar
			{
				OFFSET -3.470700 6.669187 -0.816635 
				CHANNELS 3 Yrotation Zrotation Xrotation
				JOINT rShldr
				{
					OFFSET -3.198488 0.000000 0.000000 
					CHANNELS 3 Zrotation Yrotation Xrotation
					JOINT rForeArm
					{
						OFFSET -10.139888 0.000000 0.000000 
						CHANNELS 3 Yrotation Zrotation Xrotation
						JOINT rHand
						{
							OFFSET -8.370511 0.000000 0.000000 
							CHANNELS 3 Zrotation Yrotation Xrotation
							End Site
							{
								OFFSET -4.083176 0.000000 0.000000 
							}
						}
					}
				}
			}
		}
	}
	JOINT lThigh
	{
		OFFSET 5.308129 -1.633274 1.361059 
		CHANNELS 3 Xrotation Zrotation Yrotation
		JOINT lShin
		{
			OFFSET -2.041588 -20.007561 0.000000 
			CHANNELS 3 Xrotation Zrotation Yrotation
			JOINT lFoot
			{
				OFFSET 0.000000 -19.190928 -1.224953 
				CHANNELS 3 Xrotation Yrotation Zrotation
				End Site
				{
					OFFSET 0.000000 -2.449906 4.627600 
				}
			}
		}
	}
	JOINT rThigh
	{
		OFFSET -5.308129 -1.633274 1.361059 
		CHANNELS 3 Xrotation Zrotation Yrotation
		JOINT rShin
		{
			OFFSET 2.041588 -20.007561 0.000000 
			CHANNELS 3 Xrotation Zrotation Yrotation
			JOINT rFoot
			{
				OFFSET 0.000000 -19.190928 -1.224953 
				CHANNELS 3 Xrotation Yrotation Zrotation
				End Site
				{
					OFFSET 0.000000 -2.449906 4.627600 
				}
			}
		}
	}
}
MOTION
Frames: 11
Frame Time: 0.016667
-0.271005 52.599606 -162.904861 -1.187336 2.566281 -2.306747 34.265991 -1.507851 -4.136841 1.277962 2.938628 -2.072032 -10.176128 -0.511754 0.077427 1.494940 -5.214827 9.884258 -8.807052 -9.238154 -0.477828 -63.924519 26.596819 -35.283192 -116.255295 -5.000000 -18.834377 -13.740966 -6.781880 -5.582320 8.061074 7.286317 -0.386660 61.227959 -13.297606 -21.321817 109.037071 5.000000 -11.211557 25.158695 -8.564588 -2.076196 -7.963360 -0.205158 3.882045 91.867508 -0.361122 2.504797 9.031473 4.811136 -10.556211 -10.047583 -5.790368 6.213566 28.749550 9.985030 7.467240 -16.903263 -10.438402 -5.197163 
-0.224737 52.370678 -161.605316 -1.076182 1.552192 -1.514174 34.527611 -0.237123 -3.511349 1.292207 2.851024 -1.700269 -10.089354 -1.052474 0.159229 1.392645 -5.344161 8.984331 -8.911193 -9.969572 -0.517165 -64.543449 27.303011 -36.964226 -115.066177 -5.000000 -18.232313 -14.240821 -7.943082 -2.999578 8.799422 6.701048 -0.356336 61.384834 -12.384001 -20.355255 109.107384 5.000000 -10.823930 25.673597 -8.122145 -2.741314 -11.556727 1.180772 2.948151 95.271370 -0.440357 1.904246 6.986080 5.386255 -8.747673 -8.962446 -4.686545 6.061457 30.281931 9.974717 7.753542 -19.473251 -11.194563 -5.372395 
-0.206247 52.104874 -159.423050 -1.019357 0.576160 -0.371075 34.779575 0.841692 -2.641919 1.535088 2.724356 -1.191916 -10.091947 -1.688286 0.265272 1.280982 -5.347447 7.277186 -8.533073 -10.262138 -0.532250 -65.556274 28.387819 -39.027901 -113.946747 -5.000000 -17.850603 -14.910705 -9.991595 -0.462501 9.602699 5.246165 -0.289593 62.186401 -10.931541 -18.977962 109.320740 5.000000 -10.337173 26.104076 -7.737455 -3.260175 -17.057585 2.499504 1.572454 98.241501 -0.216337 0.541116 4.255250 5.991425 -6.966966 -6.193460 -3.512283 5.573150 30.851870 9.983220 7.657577 -22.480644 -11.653409 -5.339286 
-0.206276 51.814487 -156.652344 -1.022246 -0.380802 0.996072 35.018383 1.794467 -1.625593 1.946182 2.578071 -0.576236 -10.164699 -2.401337 0.382951 1.168199 -5.262963 5.030693 -7.849388 -10.252385 -0.531747 -66.876839 29.711315 -41.385372 -112.870667 -5.000000 -17.562853 -15.817495 -12.583295 2.057541 10.454142 3.215577 -0.193379 63.448959 -9.147302 -17.309763 109.642731 5.000000 -9.757149 26.476326 -7.400892 -3.661119 -23.795933 3.671293 -0.142438 100.893898 0.290991 -1.368102 0.984717 6.519351 -5.246894 -2.303631 -2.245200 4.910280 30.758537 9.984051 7.305785 -25.839331 -12.009561 -5.258899 
-0.208859 51.630093 -153.853958 -1.039557 -0.790298 2.441578 35.293377 2.186201 -0.961751 2.276625 2.412109 0.029682 -10.287299 -2.987394 0.491752 1.139256 -5.130771 2.764697 -7.017838 -10.096351 -0.523704 -67.963516 30.980188 -43.388435 -112.181831 -5.000000 -17.483379 -16.992662 -14.741908 3.817623 11.327886 1.414744 -0.080458 64.705666 -7.716462 -15.960643 110.081848 5.000000 -9.266586 26.753330 -7.101036 -4.020333 -30.040606 4.080755 -1.785836 102.201080 0.749364 -3.228759 -1.814615 7.073475 -4.104722 1.844856 -1.365899 4.094100 30.052504 9.974001 6.755155 -28.644030 -12.358246 -5.019609 
-0.221656 51.869663 -150.945038 -1.041386 0.983705 4.180411 35.656544 0.408437 -1.842887 2.320728 2.187441 0.576611 -10.610926 -3.082484 0.515995 1.477036 -4.765484 0.440368 -5.593645 -9.365887 -0.474769 -67.797081 32.271454 -43.715973 -113.357948 -5.000000 -18.700426 -18.232388 -15.359514 2.326438 12.313367 0.515257 -0.043595 65.755005 -7.608904 -16.002207 110.886055 5.000000 -9.204888 26.715452 -6.991685 -4.262244 -34.156700 2.274749 -2.469304 98.128395 0.837951 -5.095747 -2.421417 8.024756 -5.716437 7.040083 -2.215662 2.372806 26.816952 9.492446 5.431605 -29.146727 -12.491486 -4.087800 
-0.234449 52.109241 -148.036102 -0.993122 2.758645 5.925187 36.067451 -1.358751 -2.714975 2.371390 1.952929 1.123574 -10.935055 -3.166455 0.548415 1.795208 -4.392149 -1.890447 -4.182938 -8.633512 -0.446647 -67.628159 33.565662 -44.038193 -114.612770 -5.000000 -20.002935 -19.444101 -16.063934 0.859125 13.299403 -0.380065 0.012360 66.805656 -7.497223 -16.056782 111.683212 5.000000 -9.109911 26.676497 -6.874063 -4.500026 -38.257656 0.429745 -3.033400 94.080223 0.781084 -7.040318 -2.970076 8.973225 -7.350264 12.286358 -2.887852 0.585957 23.600470 8.402663 4.151901 -29.642185 -12.681801 -3.160078 
-0.134076 52.548161 -145.030487 -0.699170 5.748893 7.695769 36.711475 -4.319597 -4.090341 2.144268 1.562110 1.875589 -11.438386 -2.664377 0.472493 2.261184 -3.854125 -4.718024 -3.834129 -7.697286 -0.396961 -67.226120 34.430706 -43.931087 -116.066048 -5.000000 -21.289616 -21.024582 -15.325983 1.096105 13.065183 -0.592376 0.032954 67.514969 -7.843162 -16.463120 112.239677 5.000000 -9.160498 26.323988 -6.961571 -4.379540 -39.453888 -2.480092 -2.477740 86.330681 -0.069038 -6.741922 -3.708001 9.738246 -8.997413 17.035618 -4.549501 -1.885053 20.253613 7.514993 3.190570 -26.672388 -12.866704 -2.831868 
-0.005410 53.036922 -142.000687 -0.261461 9.026631 9.514609 37.525341 -7.579203 -5.642880 1.841668 1.122501 2.685969 -11.989839 -2.009267 0.363163 2.743065 -3.261720 -7.659027 -3.759284 -6.712293 -0.344974 -66.747337 35.195892 -43.709373 -117.562675 -5.000000 -22.564249 -22.669628 -14.189435 1.723486 12.518330 -0.631387 0.034970 68.152481 -8.289579 -16.971485 112.721916 5.000000 -9.248492 25.902023 -7.103672 -4.166831 -40.009850 -5.623602 -1.632962 77.678993 -0.967085 -5.787343 -4.438144 10.460192 -10.651477 21.770117 -6.277950 -4.685434 16.867525 6.617212 2.348944 -22.842041 -12.999122 -2.669985 
0.123217 53.508087 -138.913284 0.217128 11.141315 11.340957 38.118229 -9.690569 -6.488395 1.736893 0.761207 3.174031 -12.749252 -1.613389 0.303310 2.966436 -2.710721 -10.167858 -3.670040 -6.302065 -0.333555 -65.855560 35.484409 -43.166084 -118.421425 -5.000000 -23.194143 -24.104986 -12.982247 2.845114 11.736922 -0.477331 0.017344 68.471649 -8.517076 -17.322670 113.096092 5.000000 -9.370952 25.572767 -7.707070 -3.405226 -39.493950 -7.908508 -1.440029 68.512344 -1.836037 -5.117271 -5.635794 10.979188 -11.114374 25.177769 -6.854652 -7.104427 15.301314 5.896307 1.860256 -15.627715 -13.481551 -1.247871 
0.251784 53.952858 -135.739548 0.626941 11.505421 13.151245 38.215244 -10.116386 -6.242868 1.903457 0.507468 3.154387 -13.814676 -1.588230 0.338997 2.811850 -2.292489 -12.011737 -3.575193 -6.760447 -0.358314 -64.344444 35.060261 -42.153938 -118.363083 -5.000000 -22.885504 -25.199358 -11.680484 4.696442 10.604084 -0.028521 -0.005883 68.328285 -8.394739 -17.431026 113.293648 5.000000 -9.547296 25.359827 -8.998976 -1.812513 -37.349022 -8.866399 -2.297987 58.609615 -2.822322 -4.913234 -7.616935 11.027358 -9.873157 26.467791 -5.975671 -8.744029 16.420959 5.462388 1.810335 -3.323060 -13.967650 2.220534 
